<svg width="60" height="60" viewBox="0 0 60 60" fill="none" xmlns="http://www.w3.org/2000/svg">
<g filter="url(#filter0_d_31_354)">
<rect x="9" y="9" width="40" height="40" rx="20" fill="white"/>
<rect x="9.5" y="9.5" width="39" height="39" rx="19.5" stroke="#E8E8E8"/>
<mask id="mask0_31_354" style="mask-type:luminance" maskUnits="userSpaceOnUse" x="17" y="17" width="24" height="24">
<path d="M41 17H17V41H41V17Z" fill="white"/>
</mask>
<g mask="url(#mask0_31_354)">
<path d="M29.0001 39.75C23.0701 39.75 18.2501 34.93 18.2501 29C18.2501 23.07 23.0701 18.25 29.0001 18.25C34.9301 18.25 39.7501 23.07 39.7501 29C39.7501 34.93 34.9301 39.75 29.0001 39.75ZM29.0001 19.75C23.9001 19.75 19.7501 23.9 19.7501 29C19.7501 34.1 23.9001 38.25 29.0001 38.25C34.1001 38.25 38.2501 34.1 38.2501 29C38.2501 23.9 34.1001 19.75 29.0001 19.75Z" fill="#1B1C1E"/>
<path d="M32.71 32.9298C32.58 32.9298 32.45 32.8998 32.33 32.8198L29.23 30.9698C28.46 30.5098 27.89 29.4998 27.89 28.6098V24.5098C27.89 24.0998 28.23 23.7598 28.64 23.7598C29.05 23.7598 29.39 24.0998 29.39 24.5098V28.6098C29.39 28.9698 29.69 29.4998 30 29.6798L33.1 31.5298C33.46 31.7398 33.57 32.1998 33.36 32.5598C33.21 32.7998 32.96 32.9298 32.71 32.9298Z" fill="#1B1C1E"/>
</g>
</g>
<defs>
<filter id="filter0_d_31_354" x="0" y="0" width="60" height="60" filterUnits="userSpaceOnUse" color-interpolation-filters="sRGB">
<feFlood flood-opacity="0" result="BackgroundImageFix"/>
<feColorMatrix in="SourceAlpha" type="matrix" values="0 0 0 0 0 0 0 0 0 0 0 0 0 0 0 0 0 0 127 0" result="hardAlpha"/>
<feOffset dx="1" dy="1"/>
<feGaussianBlur stdDeviation="5"/>
<feComposite in2="hardAlpha" operator="out"/>
<feColorMatrix type="matrix" values="0 0 0 0 0.538462 0 0 0 0 0.538462 0 0 0 0 0.538462 0 0 0 0.25 0"/>
<feBlend mode="normal" in2="BackgroundImageFix" result="effect1_dropShadow_31_354"/>
<feBlend mode="normal" in="SourceGraphic" in2="effect1_dropShadow_31_354" result="shape"/>
</filter>
</defs>
</svg>
