<svg width="34" height="34" viewBox="0 0 34 34" fill="none" xmlns="http://www.w3.org/2000/svg">
<rect width="34" height="34" rx="17" fill="#F7E4C4"/>
<path d="M17 14.8333V17.5417M23.5 17C23.5 17.8536 23.3319 18.6988 23.0052 19.4874C22.6786 20.2761 22.1998 20.9926 21.5962 21.5962C20.9926 22.1998 20.2761 22.6786 19.4874 23.0052C18.6988 23.3319 17.8536 23.5 17 23.5C16.1464 23.5 15.3012 23.3319 14.5126 23.0052C13.7239 22.6786 13.0074 22.1998 12.4038 21.5962C11.8002 20.9926 11.3214 20.2761 10.9948 19.4874C10.6681 18.6988 10.5 17.8536 10.5 17C10.5 15.2761 11.1848 13.6228 12.4038 12.4038C13.6228 11.1848 15.2761 10.5 17 10.5C18.7239 10.5 20.3772 11.1848 21.5962 12.4038C22.8152 13.6228 23.5 15.2761 23.5 17ZM17 19.7083H17.0058V19.7141H17V19.7083Z" stroke="#FC9815" stroke-linecap="round" stroke-linejoin="round"/>
</svg>
