<svg width="16" height="16" viewBox="0 0 16 16" fill="none" xmlns="http://www.w3.org/2000/svg">
<g clip-path="url(#clip0_31_484)">
<mask id="mask0_31_484" style="mask-type:luminance" maskUnits="userSpaceOnUse" x="0" y="0" width="16" height="16">
<path d="M16 0H0V16H16V0Z" fill="white"/>
</mask>
<g mask="url(#mask0_31_484)">
<path d="M7.99998 15.1666C4.04665 15.1666 0.833313 11.9533 0.833313 7.99992C0.833313 4.04659 4.04665 0.833252 7.99998 0.833252C11.9533 0.833252 15.1666 4.04659 15.1666 7.99992C15.1666 11.9533 11.9533 15.1666 7.99998 15.1666ZM7.99998 1.83325C4.59998 1.83325 1.83331 4.59992 1.83331 7.99992C1.83331 11.3999 4.59998 14.1666 7.99998 14.1666C11.4 14.1666 14.1666 11.3999 14.1666 7.99992C14.1666 4.59992 11.4 1.83325 7.99998 1.83325Z" fill="#757575"/>
<path d="M6.59338 5.72005C6.32005 5.72005 6.09338 5.49339 6.09338 5.22005V3.88672C6.09338 3.61339 6.32005 3.38672 6.59338 3.38672C6.86669 3.38672 7.09336 3.61339 7.09336 3.88672V5.22005C7.09336 5.49339 6.87336 5.72005 6.59338 5.72005Z" fill="#757575"/>
<path d="M9.40656 5.72005C9.13322 5.72005 8.90656 5.49339 8.90656 5.22005V3.88672C8.90656 3.61339 9.13322 3.38672 9.40656 3.38672C9.67989 3.38672 9.90656 3.61339 9.90656 3.88672V5.22005C9.90656 5.49339 9.67989 5.72005 9.40656 5.72005Z" fill="#757575"/>
<path d="M10.98 7.26024H5.01331C4.73997 7.26024 4.51331 7.03357 4.51331 6.76024C4.51331 6.48693 4.73997 6.26025 5.01331 6.26025H10.98C11.2533 6.26025 11.48 6.48693 11.48 6.76024C11.48 7.03357 11.26 7.26024 10.98 7.26024Z" fill="#757575"/>
<path d="M8.99998 12.2799H6.99998C5.16665 12.2799 3.83331 10.9465 3.83331 9.11319V7.11319C3.83331 5.27987 5.16665 3.94653 6.99998 3.94653H8.99998C10.8333 3.94653 12.1666 5.27987 12.1666 7.11319V9.11319C12.1666 10.9465 10.8333 12.2799 8.99998 12.2799ZM6.99998 4.94653C5.49998 4.94653 4.83331 6.0332 4.83331 7.11319V9.11319C4.83331 10.1932 5.49998 11.2799 6.99998 11.2799H8.99998C10.5 11.2799 11.1666 10.1932 11.1666 9.11319V7.11319C11.1666 6.0332 10.5 4.94653 8.99998 4.94653H6.99998Z" fill="#757575"/>
</g>
</g>
<defs>
<clipPath id="clip0_31_484">
<rect width="16" height="16" fill="white"/>
</clipPath>
</defs>
</svg>
