<svg width="14" height="14" viewBox="0 0 14 14" fill="none" xmlns="http://www.w3.org/2000/svg">
<g clip-path="url(#clip0_4_1805)">
<mask id="mask0_4_1805" style="mask-type:luminance" maskUnits="userSpaceOnUse" x="0" y="0" width="14" height="14">
<path d="M14 0H0V14H14V0Z" fill="white"/>
</mask>
<g mask="url(#mask0_4_1805)">
<path d="M6.32329 7.89847H5.44829C4.77746 7.89847 4.23496 7.33847 4.23496 6.6443C4.23496 6.40513 4.43329 6.2068 4.67246 6.2068C4.91163 6.2068 5.10996 6.40513 5.10996 6.6443C5.10996 6.8543 5.26163 7.02347 5.44829 7.02347H6.32329C6.45746 7.02347 6.56246 6.90097 6.56246 6.7493C6.56246 6.54513 6.52746 6.53347 6.39329 6.4868L4.98746 5.9968C4.47996 5.8218 4.22913 5.46597 4.22913 4.9118C4.22913 4.2818 4.73079 3.76263 5.34329 3.76263H6.21829C6.88913 3.76263 7.43163 4.32263 7.43163 5.0168C7.43163 5.25597 7.23329 5.4543 6.99413 5.4543C6.75496 5.4543 6.55663 5.25597 6.55663 5.0168C6.55663 4.8068 6.40496 4.63763 6.21829 4.63763H5.34329C5.20913 4.63763 5.10413 4.76013 5.10413 4.9118C5.10413 5.11597 5.13913 5.12763 5.27329 5.1743L6.67913 5.6643C7.18663 5.84513 7.43163 6.20097 7.43163 6.7493C7.43746 7.38513 6.93579 7.89847 6.32329 7.89847Z" fill="#757575"/>
<path d="M5.83325 8.36477C5.59409 8.36477 5.39575 8.16644 5.39575 7.92727V7.49561C5.39575 7.25644 5.59409 7.05811 5.83325 7.05811C6.07242 7.05811 6.27075 7.25644 6.27075 7.49561V7.92727C6.27075 8.17227 6.07242 8.36477 5.83325 8.36477Z" fill="#757575"/>
<path d="M5.83325 4.63176C5.59409 4.63176 5.39575 4.43342 5.39575 4.19426V3.73926C5.39575 3.50009 5.59409 3.30176 5.83325 3.30176C6.07242 3.30176 6.27075 3.50009 6.27075 3.73926V4.19426C6.27075 4.43342 6.07242 4.63176 5.83325 4.63176Z" fill="#757575"/>
<path d="M5.82746 10.9201C3.01579 10.9201 0.729126 8.63346 0.729126 5.82181C0.729126 3.01015 3.01579 0.72348 5.82746 0.72348C8.63913 0.72348 10.9258 3.01015 10.9258 5.82181C10.9258 8.63346 8.63329 10.9201 5.82746 10.9201ZM5.82746 1.60431C3.49996 1.60431 1.60413 3.50015 1.60413 5.82765C1.60413 8.15513 3.49996 10.0451 5.82746 10.0451C8.15496 10.0451 10.0508 8.1493 10.0508 5.82181C10.0508 3.49431 8.15496 1.60431 5.82746 1.60431Z" fill="#757575"/>
<path d="M9.92831 13.2535C8.84914 13.2535 7.83414 12.7285 7.20997 11.8419C7.06997 11.6435 7.11664 11.3694 7.31497 11.2294C7.51331 11.0894 7.78747 11.136 7.92747 11.3344C8.38831 11.9877 9.13497 12.3727 9.92831 12.3727C11.2816 12.3727 12.3783 11.276 12.3783 9.92269C12.3783 9.13519 11.9933 8.38853 11.3516 7.92769C11.1533 7.78769 11.1125 7.51353 11.2525 7.3152C11.3925 7.11686 11.6666 7.07603 11.865 7.21603C12.7341 7.8402 13.2533 8.84936 13.2533 9.92269C13.2533 11.766 11.7658 13.2535 9.92831 13.2535Z" fill="#757575"/>
</g>
</g>
<defs>
<clipPath id="clip0_4_1805">
<rect width="14" height="14" fill="white"/>
</clipPath>
</defs>
</svg>
