<svg width="16" height="16" viewBox="0 0 16 16" fill="none" xmlns="http://www.w3.org/2000/svg">
<g clip-path="url(#clip0_31_441)">
<mask id="mask0_31_441" style="mask-type:luminance" maskUnits="userSpaceOnUse" x="0" y="0" width="16" height="16">
<path d="M16 0H0V16H16V0Z" fill="white"/>
</mask>
<g mask="url(#mask0_31_441)">
<path d="M5.33331 3.83325C5.05998 3.83325 4.83331 3.60659 4.83331 3.33325V1.33325C4.83331 1.05992 5.05998 0.833252 5.33331 0.833252C5.60665 0.833252 5.83331 1.05992 5.83331 1.33325V3.33325C5.83331 3.60659 5.60665 3.83325 5.33331 3.83325Z" fill="#757575"/>
<path d="M10.6667 3.83325C10.3934 3.83325 10.1667 3.60659 10.1667 3.33325V1.33325C10.1667 1.05992 10.3934 0.833252 10.6667 0.833252C10.94 0.833252 11.1667 1.05992 11.1667 1.33325V3.33325C11.1667 3.60659 10.94 3.83325 10.6667 3.83325Z" fill="#757575"/>
<path d="M5.66667 9.66679C5.58 9.66679 5.49333 9.64679 5.41333 9.61345C5.32667 9.58012 5.26 9.53345 5.19333 9.47345C5.07333 9.34679 5 9.18012 5 9.00012C5 8.91345 5.02 8.82679 5.05333 8.74679C5.08667 8.66679 5.13333 8.59345 5.19333 8.52679C5.26 8.46679 5.32667 8.42012 5.41333 8.38679C5.65333 8.28679 5.95333 8.34012 6.14 8.52679C6.26 8.65345 6.33333 8.82679 6.33333 9.00012C6.33333 9.04012 6.32667 9.08679 6.32 9.13345C6.31333 9.17345 6.3 9.21345 6.28 9.25345C6.26667 9.29345 6.24667 9.33345 6.22 9.37345C6.2 9.40679 6.16667 9.44012 6.14 9.47345C6.01333 9.59345 5.84 9.66679 5.66667 9.66679Z" fill="#757575"/>
<path d="M7.99998 9.66705C7.91331 9.66705 7.82665 9.64711 7.74665 9.61378C7.65998 9.58045 7.59331 9.53371 7.52665 9.47371C7.40665 9.34705 7.33331 9.18038 7.33331 9.00038C7.33331 8.91371 7.35331 8.82705 7.38665 8.74705C7.41998 8.66705 7.46665 8.59378 7.52665 8.52711C7.59331 8.46711 7.65998 8.42038 7.74665 8.38705C7.98665 8.28038 8.28665 8.34045 8.47331 8.52711C8.59331 8.65378 8.66665 8.82705 8.66665 9.00038C8.66665 9.04038 8.65998 9.08711 8.65331 9.13378C8.64665 9.17378 8.63331 9.21378 8.61331 9.25378C8.59998 9.29378 8.57998 9.33371 8.55331 9.37371C8.53331 9.40705 8.49998 9.44038 8.47331 9.47371C8.34665 9.59371 8.17331 9.66705 7.99998 9.66705Z" fill="#757575"/>
<path d="M10.3334 9.66705C10.2467 9.66705 10.16 9.64711 10.08 9.61378C9.99335 9.58045 9.92669 9.53371 9.86002 9.47371C9.83335 9.44038 9.80669 9.40705 9.78002 9.37371C9.75335 9.33371 9.73335 9.29378 9.72002 9.25378C9.70002 9.21378 9.68669 9.17378 9.68002 9.13378C9.67335 9.08711 9.66669 9.04038 9.66669 9.00038C9.66669 8.82705 9.74002 8.65378 9.86002 8.52711C9.92669 8.46711 9.99335 8.42038 10.08 8.38705C10.3267 8.28038 10.62 8.34045 10.8067 8.52711C10.9267 8.65378 11 8.82705 11 9.00038C11 9.04038 10.9934 9.08711 10.9867 9.13378C10.98 9.17378 10.9667 9.21378 10.9467 9.25378C10.9334 9.29378 10.9134 9.33371 10.8867 9.37371C10.8667 9.40705 10.8334 9.44038 10.8067 9.47371C10.68 9.59371 10.5067 9.66705 10.3334 9.66705Z" fill="#757575"/>
<path d="M5.66667 11.9993C5.58 11.9993 5.49333 11.9793 5.41333 11.946C5.33333 11.9127 5.26 11.866 5.19333 11.806C5.07333 11.6793 5 11.506 5 11.3327C5 11.246 5.02 11.1593 5.05333 11.0793C5.08667 10.9926 5.13333 10.9193 5.19333 10.8593C5.44 10.6126 5.89333 10.6126 6.14 10.8593C6.26 10.986 6.33333 11.1593 6.33333 11.3327C6.33333 11.506 6.26 11.6793 6.14 11.806C6.01333 11.926 5.84 11.9993 5.66667 11.9993Z" fill="#757575"/>
<path d="M7.99998 11.9993C7.82665 11.9993 7.65331 11.926 7.52665 11.806C7.40665 11.6793 7.33331 11.506 7.33331 11.3327C7.33331 11.246 7.35331 11.1593 7.38665 11.0793C7.41998 10.9926 7.46665 10.9193 7.52665 10.8593C7.77331 10.6126 8.22665 10.6126 8.47331 10.8593C8.53331 10.9193 8.57998 10.9926 8.61331 11.0793C8.64665 11.1593 8.66665 11.246 8.66665 11.3327C8.66665 11.506 8.59331 11.6793 8.47331 11.806C8.34665 11.926 8.17331 11.9993 7.99998 11.9993Z" fill="#757575"/>
<path d="M10.3334 12.0004C10.16 12.0004 9.98669 11.9271 9.86002 11.8071C9.80002 11.7471 9.75335 11.6738 9.72002 11.5871C9.68669 11.5071 9.66669 11.4204 9.66669 11.3338C9.66669 11.2471 9.68669 11.1604 9.72002 11.0804C9.75335 10.9938 9.80002 10.9204 9.86002 10.8604C10.0134 10.7071 10.2467 10.6338 10.46 10.6804C10.5067 10.6871 10.5467 10.7004 10.5867 10.7204C10.6267 10.7338 10.6667 10.7538 10.7067 10.7804C10.74 10.8004 10.7734 10.8338 10.8067 10.8604C10.9267 10.9871 11 11.1604 11 11.3338C11 11.5071 10.9267 11.6804 10.8067 11.8071C10.68 11.9271 10.5067 12.0004 10.3334 12.0004Z" fill="#757575"/>
<path d="M13.6666 6.55981H2.33331C2.05998 6.55981 1.83331 6.33315 1.83331 6.05981C1.83331 5.78648 2.05998 5.55981 2.33331 5.55981H13.6666C13.94 5.55981 14.1666 5.78648 14.1666 6.05981C14.1666 6.33315 13.94 6.55981 13.6666 6.55981Z" fill="#757575"/>
<path d="M10.6667 15.1666H5.33333C2.9 15.1666 1.5 13.7666 1.5 11.3333V5.66659C1.5 3.23325 2.9 1.83325 5.33333 1.83325H10.6667C13.1 1.83325 14.5 3.23325 14.5 5.66659V11.3333C14.5 13.7666 13.1 15.1666 10.6667 15.1666ZM5.33333 2.83325C3.42667 2.83325 2.5 3.75992 2.5 5.66659V11.3333C2.5 13.2399 3.42667 14.1666 5.33333 14.1666H10.6667C12.5733 14.1666 13.5 13.2399 13.5 11.3333V5.66659C13.5 3.75992 12.5733 2.83325 10.6667 2.83325H5.33333Z" fill="#757575"/>
</g>
</g>
<defs>
<clipPath id="clip0_31_441">
<rect width="16" height="16" fill="white"/>
</clipPath>
</defs>
</svg>
