<svg width="14" height="14" viewBox="0 0 14 14" fill="none" xmlns="http://www.w3.org/2000/svg">
<g clip-path="url(#clip0_4_1862)">
<mask id="mask0_4_1862" style="mask-type:luminance" maskUnits="userSpaceOnUse" x="0" y="0" width="14" height="14">
<path d="M14 0H0V14H14V0Z" fill="white"/>
</mask>
<g mask="url(#mask0_4_1862)">
<path d="M6.36996 11.5206C6.20079 11.5206 6.03746 11.4973 5.90329 11.4448C3.90829 10.7623 0.729126 8.32393 0.729126 4.71893C0.729126 2.86977 2.22245 1.37061 4.05995 1.37061C4.94079 1.37061 5.76329 1.70893 6.37579 2.30976C6.99413 1.70893 7.81079 1.37061 8.69163 1.37061C10.5291 1.37061 12.0225 2.86977 12.0225 4.71893C12.0225 4.96977 12.005 5.22644 11.97 5.48894C11.9525 5.62311 11.8708 5.7456 11.7541 5.8156C11.6375 5.8856 11.4916 5.89143 11.3633 5.83893C10.6458 5.52977 9.75329 5.76311 9.28663 6.38727C9.20496 6.4981 9.04746 6.55643 8.93663 6.56227C8.79663 6.56227 8.66829 6.4981 8.58663 6.38727C8.25413 5.94393 7.74663 5.69311 7.19829 5.69311C6.24746 5.69311 5.47163 6.47477 5.47163 7.43727C5.47163 8.95393 6.34079 10.0331 7.07579 10.6806C7.18079 10.7739 7.23329 10.9081 7.22163 11.0481C7.20996 11.1881 7.13413 11.3106 7.01163 11.3864C6.94746 11.4214 6.89496 11.4448 6.86579 11.4506C6.71413 11.4973 6.54496 11.5206 6.36996 11.5206ZM4.05995 2.24561C2.70662 2.24561 1.60413 3.35393 1.60413 4.71893C1.60413 7.76977 4.14163 9.6481 5.59997 10.3714C5.0458 9.6306 4.59079 8.6506 4.59079 7.43143C4.59079 5.98477 5.75745 4.81227 7.19246 4.81227C7.84579 4.81227 8.45829 5.05144 8.93079 5.47728C9.51996 4.95228 10.36 4.71309 11.1416 4.85893C11.1416 4.81226 11.1416 4.76561 11.1416 4.72477C11.1416 3.35977 10.0391 2.25143 8.68579 2.25143C7.90996 2.25143 7.19246 2.61309 6.71996 3.23726C6.63829 3.34809 6.50996 3.41227 6.36996 3.41227C6.22996 3.41227 6.10163 3.34809 6.01996 3.23726C5.55913 2.60726 4.84162 2.24561 4.05995 2.24561Z" fill="#757575"/>
<path d="M8.93668 12.6292C8.80252 12.6292 8.66252 12.6117 8.55168 12.5708C8.05002 12.4017 7.23918 11.9875 6.49835 11.3283C5.63504 10.5642 4.60254 9.26917 4.60254 7.43167C4.60254 5.985 5.7692 4.8125 7.20418 4.8125C7.85752 4.8125 8.47002 5.05167 8.94252 5.47751C9.67752 4.81834 10.7975 4.63167 11.7192 5.03417C12.6642 5.45417 13.2767 6.39917 13.2767 7.4375C13.2767 10.2025 10.85 12.0575 9.32168 12.5767C9.20502 12.6117 9.07085 12.6292 8.93668 12.6292ZM7.19835 5.6875C6.24752 5.6875 5.4717 6.46917 5.4717 7.43167C5.4717 8.94833 6.34085 10.0275 7.07585 10.675C7.72335 11.2467 8.40585 11.6025 8.83168 11.7425C8.87835 11.76 8.98918 11.76 9.03002 11.7425C9.90502 11.445 12.3958 10.0158 12.3958 7.43167C12.3958 6.7375 11.9875 6.1075 11.3633 5.83333C10.6575 5.52417 9.75335 5.7575 9.28668 6.38167C9.20502 6.4925 9.04752 6.55083 8.93668 6.55667C8.79668 6.55667 8.66835 6.4925 8.58668 6.38167C8.25418 5.93833 7.74668 5.6875 7.19835 5.6875Z" fill="#757575"/>
</g>
</g>
<defs>
<clipPath id="clip0_4_1862">
<rect width="14" height="14" fill="white"/>
</clipPath>
</defs>
</svg>
