<svg width="16" height="16" viewBox="0 0 16 16" fill="none" xmlns="http://www.w3.org/2000/svg">
<g clip-path="url(#clip0_4_1851)">
<mask id="mask0_4_1851" style="mask-type:luminance" maskUnits="userSpaceOnUse" x="0" y="0" width="16" height="16">
<path d="M16 0H0V16H16V0Z" fill="white"/>
</mask>
<g mask="url(#mask0_4_1851)">
<path d="M12.9 12.0934C12.6333 12.0934 12.4066 11.9067 12.3533 11.6467L12.2133 11.0334C12.1533 10.7734 11.9466 10.5667 11.6933 10.5067L11.0666 10.3601C10.8133 10.3067 10.6333 10.0801 10.6333 9.8134C10.6333 9.54674 10.8133 9.3134 11.0733 9.26007L11.6933 9.12007C11.9533 9.06007 12.16 8.8534 12.22 8.60007L12.3666 7.9734C12.42 7.72007 12.6533 7.54007 12.92 7.54007C13.1866 7.54007 13.4133 7.72674 13.4666 7.98674L13.6066 8.60007C13.6666 8.86007 13.8733 9.06674 14.1266 9.12674L14.7533 9.2734C15.0066 9.32674 15.1866 9.5534 15.1866 9.82007C15.1866 10.0867 15.0066 10.3134 14.7466 10.3734L14.1266 10.5134C13.8666 10.5734 13.66 10.7801 13.6066 11.0334L13.46 11.6601C13.4066 11.9134 13.1733 12.0934 12.9 12.0934ZM12.5266 9.8134C12.6733 9.92007 12.8 10.0467 12.9066 10.1934C13.0133 10.0467 13.14 9.92007 13.2866 9.8134C13.14 9.70674 13.0133 9.58007 12.9066 9.4334C12.8 9.58007 12.6733 9.70674 12.5266 9.8134Z" fill="#757575"/>
<path d="M10.84 12.0267C9.75329 12.0267 8.45996 11.6133 8.45996 9.64667V5.88C8.45996 3.91333 9.75329 3.5 10.84 3.5C11.9266 3.5 13.22 3.91333 13.22 5.88V6.38667C13.22 6.66 12.9933 6.88667 12.72 6.88667C12.4466 6.88667 12.22 6.66 12.22 6.38667V5.88C12.22 4.87333 11.8466 4.5 10.84 4.5C9.83329 4.5 9.45996 4.87333 9.45996 5.88V9.64667C9.45996 10.6533 9.83329 11.0267 10.84 11.0267C11.1133 11.0267 11.34 11.2533 11.34 11.5267C11.34 11.8 11.1133 12.0267 10.84 12.0267Z" fill="#757575"/>
<path d="M4.33996 12.0267C3.25329 12.0267 1.95996 11.6133 1.95996 9.64667V5.88C1.95996 3.91333 3.25329 3.5 4.33996 3.5C5.42663 3.5 6.71996 3.91333 6.71996 5.88V9.64667C6.71996 11.6133 5.42663 12.0267 4.33996 12.0267ZM4.33996 4.5C3.33329 4.5 2.95996 4.87333 2.95996 5.88V9.64667C2.95996 10.6533 3.33329 11.0267 4.33996 11.0267C5.34663 11.0267 5.71996 10.6533 5.71996 9.64667V5.88C5.71996 4.87333 5.34663 4.5 4.33996 4.5Z" fill="#757575"/>
<path d="M8.95329 8.26666H6.21997C5.94664 8.26666 5.71997 8.04 5.71997 7.76666C5.71997 7.49333 5.94664 7.26666 6.21997 7.26666H8.95329C9.22662 7.26666 9.45329 7.49333 9.45329 7.76666C9.45329 8.04 9.22662 8.26666 8.95329 8.26666Z" fill="#757575"/>
<path d="M14.1801 7.70668C13.9067 7.70668 13.6801 7.48001 13.6801 7.20668V6.20004C13.6801 5.92671 13.9067 5.70004 14.1801 5.70004C14.4534 5.70004 14.6801 5.92671 14.6801 6.20004V7.20668C14.6801 7.48001 14.4534 7.70668 14.1801 7.70668Z" fill="#757575"/>
<path d="M1 9.83333C0.726667 9.83333 0.5 9.60667 0.5 9.33333V6.19336C0.5 5.92003 0.726667 5.69336 1 5.69336C1.27333 5.69336 1.5 5.92003 1.5 6.19336V9.33333C1.5 9.60667 1.27333 9.83333 1 9.83333Z" fill="#757575"/>
</g>
</g>
<defs>
<clipPath id="clip0_4_1851">
<rect width="16" height="16" fill="white"/>
</clipPath>
</defs>
</svg>
