<svg width="26" height="26" viewBox="0 0 26 26" fill="none" xmlns="http://www.w3.org/2000/svg">
<g clip-path="url(#clip0_2026_97)">
<mask id="mask0_2026_97" style="mask-type:luminance" maskUnits="userSpaceOnUse" x="0" y="0" width="26" height="26">
<path d="M26 0H0V26H26V0Z" fill="white"/>
</mask>
<g mask="url(#mask0_2026_97)">
<path d="M9.92288 12.5884C9.89038 12.5884 9.86871 12.5884 9.83621 12.5884C9.78204 12.5775 9.70621 12.5775 9.64121 12.5884C6.49954 12.4909 4.12704 10.0209 4.12704 6.97669C4.12704 3.87835 6.65121 1.35419 9.74954 1.35419C12.8479 1.35419 15.3721 3.87835 15.3721 6.97669C15.3612 10.0209 12.9779 12.4909 9.95538 12.5884C9.94455 12.5884 9.93371 12.5884 9.92288 12.5884ZM9.74954 2.97919C7.55038 2.97919 5.75204 4.77752 5.75204 6.97669C5.75204 9.14335 7.44204 10.8875 9.59788 10.9634C9.66288 10.9525 9.80371 10.9525 9.94454 10.9634C12.0679 10.8659 13.7362 9.12169 13.7471 6.97669C13.7471 4.77752 11.9487 2.97919 9.74954 2.97919Z" fill="#757575"/>
<path d="M17.9179 12.7292C17.8854 12.7292 17.8529 12.7292 17.8204 12.7184C17.3762 12.7617 16.9212 12.4475 16.8779 12.0034C16.8346 11.5592 17.1054 11.1584 17.5496 11.1042C17.6796 11.0934 17.8204 11.0934 17.9396 11.0934C19.5212 11.0067 20.7562 9.70671 20.7562 8.11421C20.7562 6.46754 19.4237 5.13504 17.7771 5.13504C17.3329 5.14587 16.9646 4.77754 16.9646 4.33337C16.9646 3.88921 17.3329 3.52087 17.7771 3.52087C20.3121 3.52087 22.3812 5.59004 22.3812 8.12504C22.3812 10.6167 20.4312 12.6317 17.9504 12.7292C17.9396 12.7292 17.9287 12.7292 17.9179 12.7292Z" fill="#757575"/>
<path d="M9.93374 24.4292C7.81041 24.4292 5.67624 23.8875 4.06208 22.8042C2.55624 21.8075 1.73291 20.4425 1.73291 18.9583C1.73291 17.4742 2.55624 16.0983 4.06208 15.0908C7.31208 12.935 12.5771 12.935 15.8054 15.0908C17.3004 16.0875 18.1346 17.4525 18.1346 18.9367C18.1346 20.4208 17.3112 21.7967 15.8054 22.8042C14.1804 23.8875 12.0571 24.4292 9.93374 24.4292ZM4.96124 16.4558C3.92124 17.1492 3.35791 18.0375 3.35791 18.9692C3.35791 19.89 3.93208 20.7783 4.96124 21.4608C7.65874 23.27 12.2087 23.27 14.9062 21.4608C15.9462 20.7675 16.5096 19.8792 16.5096 18.9475C16.5096 18.0267 15.9354 17.1383 14.9062 16.4558C12.2087 14.6575 7.65874 14.6575 4.96124 16.4558Z" fill="#757575"/>
<path d="M19.868 22.4792C19.4888 22.4792 19.153 22.2192 19.0772 21.8292C18.9905 21.385 19.2722 20.9625 19.7055 20.865C20.388 20.7242 21.0163 20.4534 21.5038 20.0742C22.1213 19.6084 22.4572 19.0234 22.4572 18.4059C22.4572 17.7884 22.1213 17.2034 21.5147 16.7484C21.038 16.38 20.4422 16.12 19.738 15.9575C19.3047 15.86 19.023 15.4267 19.1205 14.9825C19.218 14.5492 19.6513 14.2675 20.0955 14.365C21.0272 14.5709 21.8397 14.9392 22.5005 15.4484C23.508 16.2067 24.0822 17.2792 24.0822 18.4059C24.0822 19.5325 23.4972 20.605 22.4897 21.3742C21.818 21.8942 20.973 22.2734 20.0413 22.4575C19.9763 22.4792 19.9222 22.4792 19.868 22.4792Z" fill="#757575"/>
</g>
</g>
<defs>
<clipPath id="clip0_2026_97">
<rect width="26" height="26" fill="white"/>
</clipPath>
</defs>
</svg>
