<svg width="10" height="10" viewBox="0 0 10 10" fill="none" xmlns="http://www.w3.org/2000/svg">
<mask id="mask0_31_237" style="mask-type:luminance" maskUnits="userSpaceOnUse" x="0" y="0" width="10" height="10">
<path d="M10 0H0V10H10V0Z" fill="white"/>
</mask>
<g mask="url(#mask0_31_237)">
<path d="M5.00004 9.47908C2.52921 9.47908 0.520874 7.47075 0.520874 4.99992C0.520874 2.52909 2.52921 0.520752 5.00004 0.520752C7.47087 0.520752 9.47921 2.52909 9.47921 4.99992C9.47921 7.47075 7.47087 9.47908 5.00004 9.47908ZM5.00004 1.14575C2.87504 1.14575 1.14587 2.87492 1.14587 4.99992C1.14587 7.12492 2.87504 8.85408 5.00004 8.85408C7.12504 8.85408 8.85421 7.12492 8.85421 4.99992C8.85421 2.87492 7.12504 1.14575 5.00004 1.14575Z" fill="#757575"/>
<path d="M6.54581 6.63725C6.49164 6.63725 6.43748 6.62475 6.38748 6.59142L5.09581 5.82059C4.77498 5.62892 4.53748 5.20809 4.53748 4.83725V3.12891C4.53748 2.95807 4.67914 2.81641 4.84998 2.81641C5.02081 2.81641 5.16248 2.95807 5.16248 3.12891V4.83725C5.16248 4.98725 5.28748 5.20809 5.41664 5.28309L6.70831 6.05392C6.85831 6.14142 6.90414 6.33309 6.81664 6.48309C6.75414 6.58309 6.64998 6.63725 6.54581 6.63725Z" fill="#757575"/>
</g>
</svg>
