<svg width="16" height="16" viewBox="0 0 16 16" fill="none" xmlns="http://www.w3.org/2000/svg">
<g clip-path="url(#clip0_31_429)">
<mask id="mask0_31_429" style="mask-type:luminance" maskUnits="userSpaceOnUse" x="0" y="0" width="16" height="16">
<path d="M16 0H0V16H16V0Z" fill="white"/>
</mask>
<g mask="url(#mask0_31_429)">
<path d="M7.99996 12.3332C10.3932 12.3332 12.3333 10.3931 12.3333 7.99984C12.3333 5.6066 10.3932 3.6665 7.99996 3.6665C5.60673 3.6665 3.66663 5.6066 3.66663 7.99984C3.66663 10.3931 5.60673 12.3332 7.99996 12.3332Z" stroke="#6463EB" stroke-linecap="round" stroke-linejoin="round"/>
<path d="M12.76 12.7599L12.6733 12.6733M12.6733 3.32659L12.76 3.23992M3.23998 12.7599L3.32665 12.6733M7.99998 1.38659V1.33325M7.99998 14.6666V14.6133M1.38665 7.99992H1.33331M14.6666 7.99992H14.6133M3.32665 3.32659L3.23998 3.23992" stroke="#6463EB" stroke-width="1.33333" stroke-linecap="round" stroke-linejoin="round"/>
</g>
</g>
<defs>
<clipPath id="clip0_31_429">
<rect width="16" height="16" fill="white"/>
</clipPath>
</defs>
</svg>
