<svg width="14" height="14" viewBox="0 0 14 14" fill="none" xmlns="http://www.w3.org/2000/svg">
<g clip-path="url(#clip0_4_1696)">
<mask id="mask0_4_1696" style="mask-type:luminance" maskUnits="userSpaceOnUse" x="0" y="0" width="14" height="14">
<path d="M14 0H0V14H14V0Z" fill="white"/>
</mask>
<g mask="url(#mask0_4_1696)">
<path d="M2.91667 8.60418C2.03 8.60418 1.3125 7.88668 1.3125 7.00001C1.3125 6.11334 2.03 5.39584 2.91667 5.39584C3.80333 5.39584 4.52083 6.11334 4.52083 7.00001C4.52083 7.88668 3.80333 8.60418 2.91667 8.60418ZM2.91667 6.27084C2.51417 6.27084 2.1875 6.59751 2.1875 7.00001C2.1875 7.40251 2.51417 7.72918 2.91667 7.72918C3.31917 7.72918 3.64583 7.40251 3.64583 7.00001C3.64583 6.59751 3.31917 6.27084 2.91667 6.27084Z" fill="#757575"/>
<path d="M11.0834 8.60418C10.1967 8.60418 9.47919 7.88668 9.47919 7.00001C9.47919 6.11334 10.1967 5.39584 11.0834 5.39584C11.97 5.39584 12.6875 6.11334 12.6875 7.00001C12.6875 7.88668 11.97 8.60418 11.0834 8.60418ZM11.0834 6.27084C10.6809 6.27084 10.3542 6.59751 10.3542 7.00001C10.3542 7.40251 10.6809 7.72918 11.0834 7.72918C11.4859 7.72918 11.8125 7.40251 11.8125 7.00001C11.8125 6.59751 11.4859 6.27084 11.0834 6.27084Z" fill="#757575"/>
<path d="M6.99998 8.60418C6.11331 8.60418 5.39581 7.88668 5.39581 7.00001C5.39581 6.11334 6.11331 5.39584 6.99998 5.39584C7.88665 5.39584 8.60415 6.11334 8.60415 7.00001C8.60415 7.88668 7.88665 8.60418 6.99998 8.60418ZM6.99998 6.27084C6.59748 6.27084 6.27081 6.59751 6.27081 7.00001C6.27081 7.40251 6.59748 7.72918 6.99998 7.72918C7.40248 7.72918 7.72915 7.40251 7.72915 7.00001C7.72915 6.59751 7.40248 6.27084 6.99998 6.27084Z" fill="#757575"/>
</g>
</g>
<defs>
<clipPath id="clip0_4_1696">
<rect width="14" height="14" fill="white"/>
</clipPath>
</defs>
</svg>
