<svg width="46" height="46" viewBox="0 0 46 46" fill="none" xmlns="http://www.w3.org/2000/svg">
<rect width="46" height="46" rx="23" fill="#6366F1"/>
<mask id="mask0_31_338" style="mask-type:luminance" maskUnits="userSpaceOnUse" x="7" y="7" width="32" height="32">
<path d="M38.7369 7.26318H7.26318V38.7369H38.7369V7.26318Z" fill="white"/>
</mask>
<g mask="url(#mask0_31_338)">
<path d="M32.6258 32.4812L31.0128 32.8484C29.8587 33.1107 28.9539 34.0156 28.6916 35.1696L28.3244 36.7826C28.285 36.9531 28.0359 36.9531 27.9965 36.7826L27.6293 35.1696C27.3671 34.0156 26.4622 33.1107 25.3081 32.8484L23.6951 32.4812C23.5246 32.4419 23.5246 32.1927 23.6951 32.1534L25.3081 31.7862C26.4622 31.5239 27.3671 30.619 27.6293 29.465L27.9965 27.852C28.0359 27.6815 28.285 27.6815 28.3244 27.852L28.6916 29.465C28.9539 30.619 29.8587 31.5239 31.0128 31.7862L32.6258 32.1534C32.7963 32.1927 32.7963 32.4419 32.6258 32.4812Z" stroke="white" stroke-width="1.5" stroke-miterlimit="10"/>
<path d="M21.2428 35.3272C19.9838 35.1436 18.7773 34.7764 17.6495 34.2519C17.2692 34.0683 16.6529 33.9896 16.2463 34.0814C15.3808 34.2912 13.9251 34.6453 12.6924 34.9338C11.5122 35.2223 10.7778 34.4879 11.0663 33.3077L11.9187 29.7669C12.0236 29.3603 11.9187 28.7309 11.7482 28.3506C10.6991 26.1474 10.2794 23.5902 10.7122 20.9018C11.5515 15.7348 15.7218 11.5514 20.8887 10.699C29.4128 9.32203 36.678 16.5872 35.2879 25.1114C35.0781 26.3703 34.6978 27.5637 34.1601 28.6522" stroke="white" stroke-width="1.5" stroke-linecap="round" stroke-linejoin="round"/>
<path d="M25.7409 15.8921C27.7605 16.6789 29.3604 18.292 30.121 20.3246" stroke="white" stroke-width="1.5" stroke-linecap="round" stroke-linejoin="round"/>
</g>
</svg>
