<svg width="14" height="14" viewBox="0 0 14 14" fill="none" xmlns="http://www.w3.org/2000/svg">
<g clip-path="url(#clip0_4_1767)">
<mask id="mask0_4_1767" style="mask-type:luminance" maskUnits="userSpaceOnUse" x="0" y="0" width="14" height="14">
<path d="M14 0H0V14H14V0Z" fill="white"/>
</mask>
<g mask="url(#mask0_4_1767)">
<path d="M10.4999 4.61403C10.4824 4.61403 10.4707 4.61403 10.4532 4.61403H10.424C9.32152 4.57903 8.49902 3.72736 8.49902 2.67736C8.49902 1.60403 9.37402 0.734863 10.4415 0.734863C11.509 0.734863 12.384 1.60986 12.384 2.67736C12.3782 3.7332 11.5557 4.58486 10.5057 4.61986C10.5057 4.61403 10.5057 4.61403 10.4999 4.61403ZM10.4415 1.60403C9.85236 1.60403 9.37402 2.08236 9.37402 2.67153C9.37402 3.24903 9.82319 3.7157 10.4007 3.73903C10.4065 3.7332 10.4532 3.7332 10.5057 3.73903C11.0715 3.70986 11.509 3.2432 11.5149 2.67153C11.5149 2.08236 11.0365 1.60403 10.4415 1.60403Z" fill="#757575"/>
<path d="M10.5058 8.91315C10.2783 8.91315 10.0508 8.89565 9.82325 8.85482C9.58409 8.81398 9.42659 8.58648 9.46742 8.34732C9.50825 8.10815 9.73575 7.95065 9.97492 7.99148C10.6924 8.11398 11.4508 7.97982 11.9583 7.64148C12.2324 7.46065 12.3783 7.23315 12.3783 7.00565C12.3783 6.77815 12.2266 6.55648 11.9583 6.37565C11.4508 6.03732 10.6808 5.90315 9.95742 6.03148C9.71825 6.07815 9.49075 5.91482 9.44992 5.67563C9.40909 5.43646 9.56659 5.20896 9.80575 5.16813C10.7566 4.99896 11.7424 5.17979 12.4424 5.64645C12.9558 5.99065 13.2533 6.48065 13.2533 7.00565C13.2533 7.52482 12.9616 8.02065 12.4424 8.37065C11.9116 8.72065 11.2233 8.91315 10.5058 8.91315Z" fill="#757575"/>
<path d="M3.48241 4.61416C3.47657 4.61416 3.47074 4.61416 3.47074 4.61416C2.42074 4.57916 1.59824 3.72749 1.59241 2.67749C1.59241 1.60416 2.46741 0.729156 3.53491 0.729156C4.60241 0.729156 5.47741 1.60416 5.47741 2.67166C5.47741 3.72749 4.65491 4.57916 3.60491 4.61416L3.48241 4.17666L3.52324 4.61416C3.51157 4.61416 3.49407 4.61416 3.48241 4.61416ZM3.54074 3.73916C3.57574 3.73916 3.60491 3.73916 3.63991 3.74499C4.15907 3.72166 4.61407 3.25499 4.61407 2.67749C4.61407 2.08832 4.13574 1.60998 3.54657 1.60998C2.95741 1.60998 2.47907 2.08832 2.47907 2.67749C2.47907 3.24916 2.92241 3.70999 3.48824 3.74499C3.49407 3.73916 3.51741 3.73916 3.54074 3.73916Z" fill="#757575"/>
<path d="M3.47663 8.91315C2.75913 8.91315 2.07079 8.72065 1.53996 8.37065C1.02663 8.02648 0.729126 7.53065 0.729126 7.00565C0.729126 6.48648 1.02663 5.99065 1.53996 5.64645C2.23996 5.17979 3.22579 4.99896 4.17663 5.16813C4.41579 5.20896 4.57329 5.43646 4.53246 5.67563C4.49163 5.91482 4.26413 6.07815 4.02496 6.03148C3.30163 5.90315 2.53746 6.03732 2.02413 6.37565C1.74996 6.55648 1.60413 6.77815 1.60413 7.00565C1.60413 7.23315 1.75579 7.46065 2.02413 7.64148C2.53163 7.97982 3.28996 8.11398 4.00746 7.99148C4.24663 7.95065 4.47413 8.11398 4.51496 8.34732C4.55579 8.58648 4.39829 8.81398 4.15913 8.85482C3.93163 8.89565 3.70413 8.91315 3.47663 8.91315Z" fill="#757575"/>
<path d="M6.99984 8.97196C6.98234 8.97196 6.97068 8.97196 6.95318 8.97196H6.92401C5.82152 8.93696 4.99902 8.08529 4.99902 7.03529C4.99902 5.96196 5.87401 5.09277 6.94151 5.09277C8.00901 5.09277 8.88401 5.96779 8.88401 7.03529C8.87818 8.09112 8.05568 8.94279 7.00568 8.97779C7.00568 8.97196 7.00568 8.97196 6.99984 8.97196ZM6.94151 5.96196C6.35234 5.96196 5.87401 6.44029 5.87401 7.02946C5.87401 7.60696 6.32318 8.07362 6.90068 8.09696C6.90651 8.09112 6.95318 8.09112 7.00568 8.09696C7.57151 8.06779 8.00901 7.60112 8.01485 7.02946C8.01485 6.44612 7.53651 5.96196 6.94151 5.96196Z" fill="#757575"/>
<path d="M6.9998 13.2765C6.2998 13.2765 5.59979 13.0957 5.05729 12.7282C4.54395 12.384 4.24646 11.894 4.24646 11.369C4.24646 10.8498 4.53812 10.3482 5.05729 10.004C6.14813 9.28065 7.8573 9.28065 8.9423 10.004C9.45563 10.3482 9.75313 10.8382 9.75313 11.3632C9.75313 11.8823 9.46147 12.384 8.9423 12.7282C8.3998 13.0898 7.6998 13.2765 6.9998 13.2765ZM5.54146 10.739C5.26729 10.9198 5.12146 11.1473 5.12146 11.3748C5.12146 11.6023 5.27313 11.824 5.54146 12.0048C6.32897 12.5357 7.6648 12.5357 8.4523 12.0048C8.72647 11.824 8.8723 11.5965 8.8723 11.369C8.8723 11.1415 8.72063 10.9198 8.4523 10.739C7.67063 10.2082 6.3348 10.214 5.54146 10.739Z" fill="#757575"/>
</g>
</g>
<defs>
<clipPath id="clip0_4_1767">
<rect width="14" height="14" fill="white"/>
</clipPath>
</defs>
</svg>
