<svg width="20" height="20" viewBox="0 0 20 20" fill="none" xmlns="http://www.w3.org/2000/svg">
<g clip-path="url(#clip0_2026_144)">
<mask id="mask0_2026_144" style="mask-type:luminance" maskUnits="userSpaceOnUse" x="0" y="0" width="20" height="20">
<path d="M20 0H0V20H20V0Z" fill="white"/>
</mask>
<g mask="url(#mask0_2026_144)">
<path d="M9.99999 13.9583C9.66666 13.9583 9.33332 13.9333 9.01666 13.875C7.24999 13.6167 5.64166 12.6 4.62499 11.0917C3.91666 10.025 3.54166 8.78334 3.54166 7.5C3.54166 3.94167 6.44166 1.04167 9.99999 1.04167C13.5583 1.04167 16.4583 3.94167 16.4583 7.5C16.4583 8.78334 16.0833 10.025 15.375 11.0917C14.35 12.6083 12.7417 13.6167 10.9583 13.8833C10.6667 13.9333 10.3333 13.9583 9.99999 13.9583ZM9.99999 2.29167C7.12499 2.29167 4.79166 4.625 4.79166 7.5C4.79166 8.54167 5.09166 9.54167 5.65832 10.3917C6.48332 11.6083 7.77499 12.425 9.20832 12.6333C9.74166 12.725 10.2667 12.725 10.7583 12.6333C12.2167 12.425 13.5083 11.6 14.3333 10.3833C14.9 9.53334 15.2 8.53334 15.2 7.49166C15.2083 4.625 12.875 2.29167 9.99999 2.29167Z" fill="#219EBA"/>
<path d="M5.3915 18.825C5.27484 18.825 5.1665 18.8083 5.04984 18.7833C4.50817 18.6583 4.0915 18.2417 3.9665 17.7L3.67484 16.475C3.65817 16.4 3.59984 16.3417 3.5165 16.3167L2.1415 15.9917C1.62484 15.8667 1.2165 15.4833 1.07484 14.975C0.933171 14.4667 1.07484 13.9167 1.44984 13.5417L4.69984 10.2917C4.83317 10.1583 5.0165 10.0917 5.19984 10.1083C5.38317 10.125 5.54984 10.225 5.65817 10.3833C6.48317 11.6 7.77484 12.425 9.21649 12.6333C9.74982 12.725 10.2748 12.725 10.7665 12.6333C12.2248 12.425 13.5165 11.6 14.3415 10.3833C14.4415 10.225 14.6165 10.125 14.7998 10.1083C14.9832 10.0917 15.1665 10.1583 15.2998 10.2917L18.5498 13.5417C18.9248 13.9167 19.0665 14.4667 18.9248 14.975C18.7832 15.4833 18.3665 15.875 17.8582 15.9917L16.4832 16.3167C16.4082 16.3333 16.3498 16.3917 16.3248 16.475L16.0332 17.7C15.9082 18.2417 15.4915 18.6583 14.9498 18.7833C14.4082 18.9167 13.8498 18.725 13.4998 18.3L9.99982 14.275L6.49984 18.3083C6.2165 18.6417 5.8165 18.825 5.3915 18.825ZM5.07484 11.6917L2.33317 14.4333C2.25817 14.5083 2.2665 14.5917 2.28317 14.6417C2.2915 14.6833 2.33317 14.7667 2.43317 14.7833L3.80817 15.1083C4.34984 15.2333 4.7665 15.65 4.8915 16.1917L5.18317 17.4167C5.20817 17.525 5.2915 17.5583 5.3415 17.575C5.3915 17.5833 5.47484 17.5917 5.54984 17.5083L8.74149 13.8333C7.32484 13.5583 6.02484 12.8 5.07484 11.6917ZM11.2582 13.825L14.4498 17.4917C14.5248 17.5833 14.6165 17.5833 14.6665 17.5667C14.7165 17.5583 14.7915 17.5167 14.8248 17.4083L15.1165 16.1833C15.2415 15.6417 15.6582 15.225 16.1998 15.1L17.5748 14.775C17.6748 14.75 17.7165 14.675 17.7248 14.6333C17.7415 14.5917 17.7498 14.5 17.6748 14.425L14.9332 11.6833C13.9748 12.7917 12.6832 13.55 11.2582 13.825Z" fill="#219EBA"/>
<path d="M11.5751 10.7419C11.3584 10.7419 11.1001 10.6836 10.7917 10.5003L10.0001 10.0252L9.2084 10.4918C8.4834 10.9252 8.00843 10.6752 7.83343 10.5502C7.65843 10.4252 7.28343 10.0503 7.4751 9.22525L7.6751 8.36692L7.00843 7.7502C6.64176 7.38353 6.50843 6.94188 6.63343 6.54188C6.75843 6.14188 7.1251 5.85854 7.64176 5.7752L8.5334 5.6252L8.9584 4.69188C9.20006 4.21688 9.57506 3.9502 10.0001 3.9502C10.4251 3.9502 10.8084 4.22522 11.0417 4.70022L11.5334 5.68355L12.3584 5.78355C12.8667 5.86688 13.2334 6.1502 13.3667 6.5502C13.4917 6.9502 13.3584 7.39187 12.9917 7.75854L12.3001 8.45025L12.5167 9.22525C12.7084 10.0503 12.3334 10.4252 12.1584 10.5502C12.0667 10.6252 11.8667 10.7419 11.5751 10.7419ZM8.00843 6.99189L8.5834 7.56686C8.85006 7.83353 8.9834 8.28355 8.90006 8.65017L8.74173 9.31684L9.4084 8.92517C9.76673 8.71684 10.2501 8.71684 10.6001 8.92517L11.2667 9.31684L11.1167 8.65017C11.0334 8.27521 11.1584 7.83353 11.4251 7.56686L12.0001 6.99189L11.2751 6.86686C10.9251 6.80853 10.5751 6.55022 10.4167 6.23355L10.0001 5.41687L9.5834 6.2502C9.4334 6.55854 9.0834 6.82521 8.7334 6.88355L8.00843 6.99189Z" fill="#219EBA"/>
</g>
</g>
<defs>
<clipPath id="clip0_2026_144">
<rect width="20" height="20" fill="white"/>
</clipPath>
</defs>
</svg>
