<svg width="20" height="20" viewBox="0 0 20 20" fill="none" xmlns="http://www.w3.org/2000/svg">
<g clip-path="url(#clip0_2026_85)">
<mask id="mask0_2026_85" style="mask-type:luminance" maskUnits="userSpaceOnUse" x="0" y="0" width="20" height="20">
<path d="M20 0H0V20H20V0Z" fill="white"/>
</mask>
<g mask="url(#mask0_2026_85)">
<path d="M8.32505 18.9588C8.15839 18.9588 8.02506 18.9255 7.92506 18.8838C7.59172 18.7588 7.02506 18.3505 7.02506 17.0588V11.6838H5.07505C3.95839 11.6838 3.55839 11.1588 3.41672 10.8505C3.27505 10.5338 3.15005 9.89214 3.88339 9.05048L10.1917 1.88383C11.0417 0.91716 11.7334 0.983827 12.0667 1.10883C12.4001 1.23383 12.9667 1.64216 12.9667 2.93383V8.30883H14.9167C16.0334 8.30883 16.4334 8.83381 16.5751 9.14214C16.7167 9.45881 16.8417 10.1005 16.1084 10.9421L9.80007 18.1088C9.20841 18.7838 8.69174 18.9588 8.32505 18.9588ZM11.6084 2.28383C11.5834 2.31716 11.4084 2.40049 11.1334 2.71716L4.82505 9.88381C4.59172 10.1505 4.55839 10.3171 4.55839 10.3505C4.57505 10.3588 4.72505 10.4421 5.07505 10.4421H7.65006C7.99172 10.4421 8.27506 10.7255 8.27506 11.0671V17.0671C8.27506 17.4838 8.35007 17.6671 8.3834 17.7171C8.4084 17.6838 8.5834 17.6005 8.8584 17.2838L15.1667 10.1171C15.4001 9.85048 15.4334 9.68381 15.4334 9.65048C15.4167 9.64214 15.2667 9.55881 14.9167 9.55881H12.3417C12.0001 9.55881 11.7167 9.27548 11.7167 8.93381V2.93383C11.7251 2.51716 11.6417 2.34216 11.6084 2.28383Z" fill="#FE8B33"/>
</g>
</g>
<defs>
<clipPath id="clip0_2026_85">
<rect width="20" height="20" fill="white"/>
</clipPath>
</defs>
</svg>
