<svg width="14" height="14" viewBox="0 0 14 14" fill="none" xmlns="http://www.w3.org/2000/svg">
<g clip-path="url(#clip0_31_1340)">
<path d="M9.58807 1.16529C9.99567 0.75761 10.5431 0.520208 11.1193 0.501232C11.6955 0.482256 12.2573 0.683127 12.6909 1.06311L12.7999 1.16529L13.335 1.70044C13.7425 2.10798 13.9798 2.6552 13.9988 3.23119C14.0177 3.80718 13.817 4.36883 13.4372 4.80231L13.335 4.9113L4.84797 13.3987C4.72798 13.5187 4.58261 13.6102 4.42256 13.6666L4.29993 13.7022L0.928427 14.4803C0.810295 14.5078 0.687291 14.5065 0.569772 14.4765C0.452254 14.4465 0.343663 14.3887 0.253145 14.308C0.162626 14.2273 0.0928304 14.126 0.0496348 14.0127C0.00643924 13.8993 -0.0088913 13.7773 0.00493437 13.6568L0.0200736 13.5713L0.797473 10.1992C0.835878 10.0338 0.910892 9.8791 1.01699 9.74653L1.10101 9.65191L9.58807 1.16529ZM9.0529 3.84101L2.24781 10.6458L1.76638 12.7333L3.85408 12.2512L10.6592 5.44645L9.0529 3.84101ZM11.7295 2.23558C11.5992 2.10526 11.4258 2.02697 11.2418 2.0154C11.0578 2.00383 10.876 2.05978 10.7303 2.17276L10.6592 2.23558L10.1232 2.77072L11.7295 4.37616L12.2647 3.84101C12.395 3.71068 12.4733 3.53727 12.4849 3.35331C12.4964 3.16936 12.4405 2.98751 12.3275 2.84188L12.2647 2.77072L11.7295 2.23558Z" fill="white"/>
</g>
<defs>
<clipPath id="clip0_31_1340">
<rect width="14" height="14" fill="white"/>
</clipPath>
</defs>
</svg>
