<svg width="16" height="16" viewBox="0 0 16 16" fill="none" xmlns="http://www.w3.org/2000/svg">
<path d="M3.74599 10.24L9.74912 4.23691C9.89078 4.09525 10.0561 4.02441 10.245 4.02441C10.4338 4.02441 10.5991 4.09525 10.7408 4.23691C10.8825 4.37858 10.9533 4.54693 10.9533 4.74196C10.9533 4.93698 10.8825 5.10509 10.7408 5.24629L4.24183 11.763C4.10016 11.9046 3.93488 11.9755 3.74599 11.9755C3.5571 11.9755 3.39183 11.9046 3.25016 11.763L0.204327 8.71712C0.0626603 8.57546 -0.00533974 8.40734 0.000326923 8.21279C0.00599359 8.01823 0.0798962 7.84989 0.222035 7.70775C0.364174 7.56561 0.532521 7.49478 0.727077 7.49525C0.921632 7.49572 1.08974 7.56655 1.23141 7.70775L3.74599 10.24Z" fill="#6366F1"/>
</svg>
