<svg width="20" height="20" viewBox="0 0 20 20" fill="none" xmlns="http://www.w3.org/2000/svg">
<g clip-path="url(#clip0_2026_62)">
<mask id="mask0_2026_62" style="mask-type:luminance" maskUnits="userSpaceOnUse" x="0" y="0" width="20" height="20">
<path d="M20 0H0V20H20V0Z" fill="white"/>
</mask>
<g mask="url(#mask0_2026_62)">
<path d="M11.4416 2.9255L12.9082 5.85883C13.1082 6.26717 13.6416 6.65883 14.0916 6.73383L16.7499 7.17549C18.4499 7.45883 18.8499 8.69214 17.6249 9.90881L15.5583 11.9755C15.2083 12.3255 15.0166 13.0005 15.1249 13.4838L15.7166 16.0421C16.1832 18.0671 15.1082 18.8505 13.3166 17.7921L10.8249 16.3171C10.3749 16.0505 9.63325 16.0505 9.17492 16.3171L6.68326 17.7921C4.89992 18.8505 3.81659 18.0588 4.28326 16.0421L4.87492 13.4838C4.98326 13.0005 4.79159 12.3255 4.44159 11.9755L2.37492 9.90881C1.15826 8.69214 1.54992 7.45883 3.24992 7.17549L5.90826 6.73383C6.34992 6.65883 6.88326 6.26717 7.08326 5.85883L8.54992 2.9255C9.34992 1.33383 10.6499 1.33383 11.4416 2.9255Z" stroke="#6463EB" stroke-width="1.5" stroke-linecap="round" stroke-linejoin="round"/>
</g>
</g>
<defs>
<clipPath id="clip0_2026_62">
<rect width="20" height="20" fill="white"/>
</clipPath>
</defs>
</svg>
