<svg width="18" height="18" viewBox="0 0 18 18" fill="none" xmlns="http://www.w3.org/2000/svg">
<g clip-path="url(#clip0_31_245)">
<mask id="mask0_31_245" style="mask-type:luminance" maskUnits="userSpaceOnUse" x="0" y="0" width="18" height="18">
<path d="M18 0H0V18H18V0Z" fill="white"/>
</mask>
<g mask="url(#mask0_31_245)">
<path d="M15.75 4.48535C13.2525 4.23785 10.74 4.11035 8.235 4.11035C6.75 4.11035 5.265 4.18535 3.78 4.33535L2.25 4.48535" stroke="#757575" stroke-width="1.5" stroke-linecap="round" stroke-linejoin="round"/>
<path d="M6.375 3.7275L6.54 2.745C6.66 2.0325 6.75 1.5 8.0175 1.5H9.9825C11.25 1.5 11.3475 2.0625 11.46 2.7525L11.625 3.7275" stroke="#757575" stroke-width="1.5" stroke-linecap="round" stroke-linejoin="round"/>
<path d="M14.1375 6.85547L13.65 14.408C13.5675 15.5855 13.5 16.5005 11.4075 16.5005H6.59249C4.49999 16.5005 4.43249 15.5855 4.34999 14.408L3.86249 6.85547" stroke="#757575" stroke-width="1.5" stroke-linecap="round" stroke-linejoin="round"/>
<path d="M7.7475 12.375H10.245" stroke="#757575" stroke-width="1.5" stroke-linecap="round" stroke-linejoin="round"/>
<path d="M7.125 9.375H10.875" stroke="#757575" stroke-width="1.5" stroke-linecap="round" stroke-linejoin="round"/>
</g>
</g>
<defs>
<clipPath id="clip0_31_245">
<rect width="18" height="18" fill="white"/>
</clipPath>
</defs>
</svg>
