<svg width="14" height="14" viewBox="0 0 14 14" fill="none" xmlns="http://www.w3.org/2000/svg">
<g clip-path="url(#clip0_4_1832)">
<mask id="mask0_4_1832" style="mask-type:luminance" maskUnits="userSpaceOnUse" x="0" y="0" width="14" height="14">
<path d="M14 0H0V14H14V0Z" fill="white"/>
</mask>
<g mask="url(#mask0_4_1832)">
<path d="M6.99996 12.8797C6.82496 12.8797 6.64996 12.8389 6.50413 12.7572C5.41329 12.1622 3.49413 11.5322 2.29246 11.3747L2.12329 11.3514C1.35913 11.258 0.729126 10.5405 0.729126 9.7647V2.71804C0.729126 2.25721 0.909959 1.83721 1.24246 1.53388C1.57496 1.23054 2.00663 1.08471 2.46163 1.12554C3.74496 1.22471 5.68163 1.86638 6.77829 2.55471L6.91829 2.63638C6.95913 2.65971 7.04663 2.65971 7.08163 2.64221L7.17496 2.58388C8.27163 1.89554 10.2083 1.24221 11.4975 1.13138C11.5091 1.13138 11.5558 1.13138 11.5675 1.13138C11.9933 1.09054 12.4308 1.24221 12.7575 1.54554C13.09 1.84888 13.2708 2.26888 13.2708 2.72971V9.77053C13.2708 10.5522 12.6408 11.2639 11.8708 11.3572L11.6783 11.3805C10.4766 11.538 8.55163 12.1739 7.48413 12.763C7.34413 12.8447 7.17496 12.8797 6.99996 12.8797ZM2.32163 1.99471C2.13496 1.99471 1.96579 2.05888 1.83163 2.18138C1.68579 2.31554 1.60413 2.50804 1.60413 2.71804V9.7647C1.60413 10.1089 1.90163 10.4414 2.23413 10.488L2.40913 10.5114C3.72163 10.6864 5.73413 11.3455 6.90079 11.9814C6.95329 12.0047 7.02913 12.0105 7.05829 11.9989C8.22496 11.3514 10.2491 10.6864 11.5675 10.5114L11.7658 10.488C12.0983 10.4472 12.3958 10.1089 12.3958 9.7647V2.72388C12.3958 2.50804 12.3141 2.32138 12.1683 2.18138C12.0166 2.04721 11.8241 1.98304 11.6083 1.99471C11.5966 1.99471 11.55 1.99471 11.5383 1.99471C10.4241 2.09388 8.62746 2.69471 7.64746 3.30721L7.55413 3.37138C7.23329 3.56971 6.77829 3.56971 6.46913 3.37721L6.32913 3.29554C5.33163 2.68304 3.53496 2.08804 2.39163 1.99471C2.36829 1.99471 2.34496 1.99471 2.32163 1.99471Z" fill="#757575"/>
<path d="M7 12.3901C6.76083 12.3901 6.5625 12.1918 6.5625 11.9526V3.20264C6.5625 2.96347 6.76083 2.76514 7 2.76514C7.23917 2.76514 7.4375 2.96347 7.4375 3.20264V11.9526C7.4375 12.1976 7.23917 12.3901 7 12.3901Z" fill="#757575"/>
<path d="M4.52075 5.39014H3.20825C2.96909 5.39014 2.77075 5.1918 2.77075 4.95264C2.77075 4.71347 2.96909 4.51514 3.20825 4.51514H4.52075C4.75992 4.51514 4.95825 4.71347 4.95825 4.95264C4.95825 5.1918 4.75992 5.39014 4.52075 5.39014Z" fill="#757575"/>
<path d="M4.95825 7.14011H3.20825C2.96909 7.14011 2.77075 6.94177 2.77075 6.70261C2.77075 6.46344 2.96909 6.26511 3.20825 6.26511H4.95825C5.19742 6.26511 5.39575 6.46344 5.39575 6.70261C5.39575 6.94177 5.19742 7.14011 4.95825 7.14011Z" fill="#757575"/>
</g>
</g>
<defs>
<clipPath id="clip0_4_1832">
<rect width="14" height="14" fill="white"/>
</clipPath>
</defs>
</svg>
