<svg width="16" height="16" viewBox="0 0 16 16" fill="none" xmlns="http://www.w3.org/2000/svg">
<g clip-path="url(#clip0_31_466)">
<mask id="mask0_31_466" style="mask-type:luminance" maskUnits="userSpaceOnUse" x="0" y="0" width="16" height="16">
<path d="M16 0H0V16H16V0Z" fill="white"/>
</mask>
<g mask="url(#mask0_31_466)">
<path d="M12.9135 3.25935L9.00684 1.51935C8.4335 1.26601 7.56684 1.26601 6.9935 1.51935L3.08682 3.25935C2.10016 3.69935 1.95349 4.29935 1.95349 4.61935C1.95349 4.93935 2.10016 5.53935 3.08682 5.97935L6.9935 7.71932C7.28017 7.84599 7.64017 7.91265 8.00017 7.91265C8.36017 7.91265 8.72017 7.84599 9.00684 7.71932L12.9135 5.97935C13.9002 5.53935 14.0468 4.93935 14.0468 4.61935C14.0468 4.29935 13.9068 3.69935 12.9135 3.25935Z" fill="#757575"/>
<path opacity="0.4" d="M7.99989 11.3599C7.74656 11.3599 7.49322 11.3066 7.25989 11.2066L2.76657 9.20659C2.0799 8.89992 1.54657 8.07992 1.54657 7.32659C1.54657 7.05325 1.76657 6.83325 2.0399 6.83325C2.31324 6.83325 2.53324 7.05325 2.53324 7.32659C2.53324 7.68659 2.83324 8.15325 3.16657 8.29992L7.65989 10.2999C7.87322 10.3933 8.11989 10.3933 8.33322 10.2999L12.8266 8.29992C13.1599 8.15325 13.4599 7.69325 13.4599 7.32659C13.4599 7.05325 13.6799 6.83325 13.9532 6.83325C14.2266 6.83325 14.4466 7.05325 14.4466 7.32659C14.4466 8.07325 13.9132 8.89992 13.2266 9.20659L8.73322 11.2066C8.50656 11.3066 8.25322 11.3599 7.99989 11.3599Z" fill="#757575"/>
<path opacity="0.4" d="M7.99989 14.6673C7.74656 14.6673 7.49322 14.614 7.25989 14.514L2.76657 12.514C2.02657 12.1873 1.54657 11.4473 1.54657 10.634C1.54657 10.3606 1.76657 10.1406 2.0399 10.1406C2.31324 10.1406 2.53324 10.3606 2.53324 10.634C2.53324 11.054 2.7799 11.434 3.16657 11.6073L7.65989 13.6073C7.87322 13.7006 8.11989 13.7006 8.33322 13.6073L12.8266 11.6073C13.2066 11.4406 13.4599 11.054 13.4599 10.634C13.4599 10.3606 13.6799 10.1406 13.9532 10.1406C14.2266 10.1406 14.4466 10.3606 14.4466 10.634C14.4466 11.4473 13.9666 12.1806 13.2266 12.514L8.73322 14.514C8.50656 14.614 8.25322 14.6673 7.99989 14.6673Z" fill="#757575"/>
</g>
</g>
<defs>
<clipPath id="clip0_31_466">
<rect width="16" height="16" fill="white"/>
</clipPath>
</defs>
</svg>
