<svg width="14" height="14" viewBox="0 0 14 14" fill="none" xmlns="http://www.w3.org/2000/svg">
  <g clip-path="url(#clip0_4_1755)">
    <mask id="mask0_4_1755" style="mask-type:luminance" maskUnits="userSpaceOnUse" x="0" y="0" width="14" height="14">
      <path d="M14 0H0V14H14V0Z" fill="white"/>
    </mask>

    <g mask="url(#mask0_4_1755)">
      <path
        d="M10.4998 1.76172C10.8965 1.55172 11.2815 1.37089 11.6432 1.22506C11.9873 1.09672 12.3198 1.19005 12.5298 1.40589C12.7515 1.62755 12.8565 1.96005 12.7165 2.30422C11.8182 4.54422 9.56651 7.58922 7.68234 9.10005L6.53317 10.0217C6.38734 10.1267 6.24151 10.22 6.07817 10.2842C6.07817 10.1792 6.07234 10.0625 6.05484 9.95172C5.99067 9.46172 5.76899 9.00672 5.37816 8.61588C4.98149 8.21922 4.49732 7.98588 4.00149 7.92172C3.88482 7.91588 3.76816 7.90422 3.65149 7.91588C3.71566 7.73505 3.81482 7.56588 3.93732 7.42588L4.84732 6.27672C5.69316 5.22089 7.02317 4.04839 8.41734 3.06255"
        stroke="currentColor"
        stroke-width="1.5"
        stroke-linecap="round"
        stroke-linejoin="round"
      />

      <path
        d="M6.08405 10.2788C6.08405 10.9205 5.83905 11.533 5.37821 11.9996C5.02237 12.3555 4.53821 12.6005 3.96071 12.6763L2.52571 12.8338C1.74404 12.9213 1.07321 12.2563 1.16654 11.463L1.32404 10.028C1.46404 8.75047 2.53154 7.9338 3.66321 7.91047C3.77987 7.90463 3.90237 7.91047 4.01321 7.9163C4.50904 7.98047 4.99321 8.20797 5.38987 8.61047C5.78071 9.0013 6.00238 9.4563 6.06655 9.9463C6.07238 10.0571 6.08405 10.168 6.08405 10.2788Z"
        stroke="currentColor"
        stroke-width="1.5"
        stroke-linecap="round"
        stroke-linejoin="round"
      />

      <path
        d="M8.30655 8.44094C8.30655 6.91844 7.06988 5.68179 5.54736 5.68179"
        stroke="currentColor"
        stroke-width="1.5"
        stroke-linecap="round"
        stroke-linejoin="round"
      />

      <path
        d="M11.7368 7.42612L12.1685 7.85195C13.0377 8.72112 13.0377 9.57862 12.1685 10.4478L10.4418 12.1745C9.58433 13.032 8.71517 13.032 7.85767 12.1745"
        stroke="currentColor"
        stroke-width="1.5"
        stroke-linecap="round"
      />

      <path
        d="M1.81402 6.13112C0.956523 5.26199 0.956523 4.40449 1.81402 3.53532L3.54069 1.80865C4.39819 0.951152 5.26736 0.951152 6.12485 1.80865L6.55651 2.24032"
        stroke="currentColor"
        stroke-width="1.5"
        stroke-linecap="round"
      />

      <path
        d="M6.56239 2.24561L4.40405 4.40394"
        stroke="currentColor"
        stroke-width="1.5"
        stroke-linecap="round"
      />

      <path
        d="M11.7368 7.42612L10.0101 9.14695"
        stroke="currentColor"
        stroke-width="1.5"
        stroke-linecap="round"
      />
    </g>
  </g>

  <defs>
    <clipPath id="clip0_4_1755">
      <rect width="14" height="14" fill="white"/>
    </clipPath>
  </defs>
</svg>