<svg width="14" height="14" viewBox="0 0 14 14" fill="none" xmlns="http://www.w3.org/2000/svg">
<g clip-path="url(#clip0_4_1704)">
<mask id="mask0_4_1704" style="mask-type:luminance" maskUnits="userSpaceOnUse" x="0" y="0" width="14" height="14">
<path d="M14 0H0V14H14V0Z" fill="white"/>
</mask>
<g mask="url(#mask0_4_1704)">
<path d="M7 10.9375C6.76083 10.9375 6.5625 10.7392 6.5625 10.5V8.75C6.5625 8.51083 6.76083 8.3125 7 8.3125C7.23917 8.3125 7.4375 8.51083 7.4375 8.75V10.5C7.4375 10.7392 7.23917 10.9375 7 10.9375Z" fill="#757575"/>
<path d="M10.2667 13.1605H3.73331C2.67164 13.1605 1.70331 12.3438 1.52831 11.2996L0.752477 6.65046C0.624144 5.92712 0.979977 4.99962 1.55748 4.53879L5.59998 1.30129C6.38167 0.671289 7.6125 0.677122 8.4 1.30712L12.4425 4.53879C13.0142 4.99962 13.3642 5.92712 13.2475 6.65046L12.4717 11.2938C12.2967 12.3263 11.305 13.1605 10.2667 13.1605ZM6.99417 1.70962C6.685 1.70962 6.37583 1.80296 6.14833 1.98379L2.10581 5.22712C1.77914 5.48962 1.54581 6.09629 1.61581 6.51046L2.39164 11.1538C2.49664 11.7663 3.10914 12.2855 3.73331 12.2855H10.2667C10.8908 12.2855 11.5033 11.7663 11.6083 11.148L12.3842 6.50462C12.4483 6.09629 12.215 5.47796 11.8942 5.22129L7.85167 1.98962C7.61833 1.80296 7.30333 1.70962 6.99417 1.70962Z" fill="#757575"/>
</g>
</g>
<defs>
<clipPath id="clip0_4_1704">
<rect width="14" height="14" fill="white"/>
</clipPath>
</defs>
</svg>
