<svg width="20" height="20" viewBox="0 0 20 20" fill="none" xmlns="http://www.w3.org/2000/svg">
<g clip-path="url(#clip0_2026_71)">
<mask id="mask0_2026_71" style="mask-type:luminance" maskUnits="userSpaceOnUse" x="0" y="0" width="20" height="20">
<path d="M20 0H0V20H20V0Z" fill="white"/>
</mask>
<g mask="url(#mask0_2026_71)">
<path d="M13.8333 13.3833C13.4917 13.3833 13.2083 13.1499 13.1417 12.8249L12.95 11.9916C12.8667 11.6249 12.575 11.3333 12.2083 11.2499L11.3667 11.0583C11.05 10.9916 10.8167 10.6999 10.8167 10.3666C10.8167 10.0249 11.05 9.7416 11.375 9.67493L12.2083 9.48327C12.575 9.39993 12.8667 9.10827 12.95 8.7416L13.1417 7.89998C13.2083 7.58331 13.4917 7.34998 13.8333 7.34998C14.175 7.34998 14.4583 7.58331 14.525 7.90831L14.7167 8.7416C14.8 9.10827 15.0917 9.39993 15.4583 9.48327L16.3 9.67493C16.625 9.7416 16.85 10.0333 16.85 10.3666C16.85 10.6999 16.625 10.9833 16.3 11.0583L15.4667 11.2499C15.1 11.3333 14.8083 11.6249 14.725 11.9916L14.5333 12.8333C14.4667 13.1499 14.175 13.3833 13.8333 13.3833ZM13.2333 10.3666C13.4667 10.5249 13.6667 10.7249 13.825 10.9666C13.9833 10.7333 14.1833 10.5333 14.4167 10.3749C14.1833 10.2166 13.9833 10.0166 13.825 9.78327C13.6667 10.0166 13.4667 10.2166 13.2333 10.3749V10.3666Z" fill="#03C521"/>
<path d="M10 13.4084C7.1 13.4084 4.74167 11.05 4.74167 8.15002V2.59169C4.74167 1.73335 5.43334 1.04169 6.29167 1.04169H13.7083C14.5667 1.04169 15.2583 1.73335 15.2583 2.59169V5.90002C15.2583 6.24169 14.975 6.52502 14.6333 6.52502C14.2917 6.52502 14.0083 6.24169 14.0083 5.90002V2.59169C14.0083 2.43335 13.8667 2.29169 13.7083 2.29169H6.3C6.125 2.29169 5.99167 2.43335 5.99167 2.59169V8.15002C5.99167 10.3584 7.79167 12.1584 10 12.1584C10.3583 12.1584 10.7167 12.1084 11.0667 12.0167C11.4 11.925 11.7417 12.125 11.8333 12.4584C11.925 12.7917 11.725 13.1334 11.3917 13.225C10.9417 13.35 10.475 13.4084 10 13.4084Z" fill="#03C521"/>
<path d="M5.75835 10.625H5.37502C2.99168 10.625 1.05002 8.68337 1.05002 6.30002V4.45002C1.05002 3.59169 1.74168 2.90002 2.60002 2.90002H5.37502C5.71668 2.90002 6.00002 3.18336 6.00002 3.52502C6.00002 3.86669 5.71668 4.15002 5.37502 4.15002H2.60002C2.44168 4.15002 2.30002 4.29169 2.30002 4.45002V6.30002C2.30002 7.99169 3.68335 9.37504 5.37502 9.37504H5.75835C6.10002 9.37504 6.38335 9.65837 6.38335 10C6.38335 10.3417 6.10002 10.625 5.75835 10.625Z" fill="#03C521"/>
<path d="M17.5083 9.24171C17.3667 9.24171 17.2333 9.20004 17.1167 9.10004C16.85 8.88337 16.8083 8.49171 17.025 8.22502C17.4667 7.67502 17.7 7.00836 17.7 6.30002V4.45002C17.7 4.28336 17.5583 4.15002 17.4 4.15002H14.625C14.2833 4.15002 14 3.86669 14 3.52502C14 3.18336 14.2833 2.90002 14.625 2.90002H17.4C18.2583 2.90002 18.95 3.59169 18.95 4.45002V6.30002C18.95 7.28336 18.6083 8.24169 17.9917 9.00837C17.8667 9.15837 17.6833 9.24171 17.5083 9.24171Z" fill="#03C521"/>
<path d="M13.7 18.9583H6.30002C5.80002 18.9583 5.34169 18.725 5.04169 18.3167C4.75836 17.9167 4.67502 17.4 4.82502 16.925L5.13336 15.9917C5.34169 15.3584 5.93336 14.9333 6.60002 14.9333H13.3917C14.0583 14.9333 14.65 15.3584 14.8583 15.9917L15.1667 16.9167C15.3334 17.375 15.25 17.9 14.9584 18.3167C14.6667 18.7167 14.2 18.9583 13.7 18.9583ZM6.60836 16.1833C6.48335 16.1833 6.36669 16.2667 6.32502 16.3917L6.01669 17.3167C5.98336 17.4084 6.00002 17.5083 6.05836 17.5833C6.11669 17.6667 6.20002 17.7083 6.30002 17.7083H13.7084C13.8084 17.7083 13.8917 17.6667 13.95 17.5833C14.0083 17.5083 14.025 17.4084 13.9917 17.325L13.675 16.3917C13.6333 16.275 13.5167 16.1833 13.3917 16.1833H6.60836Z" fill="#03C521"/>
<path d="M10 16.175C9.65833 16.175 9.375 15.8917 9.375 15.55V12.775C9.375 12.4334 9.65833 12.15 10 12.15C10.3417 12.15 10.625 12.4334 10.625 12.775V15.55C10.625 15.8917 10.3417 16.175 10 16.175Z" fill="#03C521"/>
</g>
</g>
<defs>
<clipPath id="clip0_2026_71">
<rect width="20" height="20" fill="white"/>
</clipPath>
</defs>
</svg>
