<svg width="34" height="34" viewBox="0 0 34 34" fill="none" xmlns="http://www.w3.org/2000/svg">
<rect width="34" height="34" rx="17" fill="#D4D7F7"/>
<path d="M13.8499 21.9627L16.9999 20.0627L20.1499 21.9877L19.3249 18.3877L22.0999 15.9877L18.4499 15.6627L16.9999 12.2627L15.5499 15.6377L11.8999 15.9627L14.6749 18.3877L13.8499 21.9627ZM16.9999 21.2397L13.3699 23.4317C13.2632 23.4844 13.1642 23.5057 13.0729 23.4957C12.9822 23.485 12.8939 23.4537 12.8079 23.4017C12.7212 23.3484 12.6559 23.273 12.6119 23.1757C12.5679 23.0784 12.5639 22.972 12.5999 22.8567L13.5659 18.7467L10.3709 15.9767C10.2809 15.9034 10.2216 15.8157 10.1929 15.7137C10.1642 15.6117 10.1706 15.514 10.2119 15.4207C10.2532 15.3274 10.3082 15.2507 10.3769 15.1907C10.4462 15.1327 10.5396 15.0934 10.6569 15.0727L14.8729 14.7047L16.5169 10.8127C16.5622 10.7027 16.6276 10.6234 16.7129 10.5747C16.7982 10.526 16.8939 10.5017 16.9999 10.5017C17.1059 10.5017 17.2019 10.526 17.2879 10.5747C17.3739 10.6234 17.4389 10.7027 17.4829 10.8127L19.1269 14.7047L23.3419 15.0727C23.4599 15.0927 23.5536 15.1324 23.6229 15.1917C23.6922 15.2504 23.7476 15.3267 23.7889 15.4207C23.8296 15.514 23.8356 15.6117 23.8069 15.7137C23.7782 15.8157 23.7189 15.9034 23.6289 15.9767L20.4339 18.7467L21.3999 22.8567C21.4372 22.9707 21.4336 23.0767 21.3889 23.1747C21.3442 23.2727 21.2786 23.348 21.1919 23.4007C21.1066 23.454 21.0182 23.4857 20.9269 23.4957C20.8362 23.5057 20.7376 23.4844 20.6309 23.4317L16.9999 21.2397Z" fill="#6463EB"/>
</svg>
