<svg width="12" height="12" viewBox="0 0 12 12" fill="none" xmlns="http://www.w3.org/2000/svg">
<path d="M0.5 11V9.83333C0.5 9.21449 0.745833 8.621 1.18342 8.18342C1.621 7.74583 2.21449 7.5 2.83333 7.5H5.16667C5.7855 7.5 6.379 7.74583 6.81658 8.18342C7.25417 8.621 7.5 9.21449 7.5 9.83333V11M8.08333 0.575833C8.58524 0.704342 9.0301 0.996242 9.34779 1.40551C9.66547 1.81479 9.83791 2.31815 9.83791 2.83625C9.83791 3.35435 9.66547 3.85771 9.34779 4.26699C9.0301 4.67626 8.58524 4.96816 8.08333 5.09667M11 11V9.83333C10.997 9.31834 10.8238 8.8188 10.5072 8.41257C10.1907 8.00634 9.74865 7.71624 9.25 7.5875M1.66667 2.83333C1.66667 3.45217 1.9125 4.04566 2.35008 4.48325C2.78767 4.92083 3.38116 5.16667 4 5.16667C4.61884 5.16667 5.21233 4.92083 5.64992 4.48325C6.0875 4.04566 6.33333 3.45217 6.33333 2.83333C6.33333 2.21449 6.0875 1.621 5.64992 1.18342C5.21233 0.745833 4.61884 0.5 4 0.5C3.38116 0.5 2.78767 0.745833 2.35008 1.18342C1.9125 1.621 1.66667 2.21449 1.66667 2.83333Z" stroke="#858F9C" stroke-linecap="round" stroke-linejoin="round"/>
</svg>
