<svg width="12" height="12" viewBox="0 0 12 12" fill="none" xmlns="http://www.w3.org/2000/svg">
<path d="M5.75 11C6.78835 11 7.80339 10.6921 8.66674 10.1152C9.5301 9.53834 10.203 8.7184 10.6004 7.75909C10.9977 6.79978 11.1017 5.74418 10.8991 4.72578C10.6966 3.70738 10.1965 2.77192 9.46231 2.03769C8.72809 1.30347 7.79262 0.803452 6.77422 0.60088C5.75582 0.398307 4.70022 0.502275 3.74091 0.899635C2.7816 1.29699 1.96166 1.9699 1.38478 2.83326C0.807907 3.69662 0.5 4.71165 0.5 5.75C0.5 6.618 0.71 7.43584 1.08333 8.15742L0.5 11L3.34258 10.4167C4.06358 10.7894 4.88258 11 5.75 11Z" stroke="#858F9C" stroke-linecap="round" stroke-linejoin="round"/>
</svg>
