<svg width="12" height="10" viewBox="0 0 12 10" fill="none" xmlns="http://www.w3.org/2000/svg">
<path fill-rule="evenodd" clip-rule="evenodd" d="M10.5101 4.81724C10.9684 4.36631 11.223 3.7575 11.2179 3.12474C11.2128 2.49198 10.9484 1.88711 10.4829 1.44317C10.2524 1.22336 9.97948 1.04968 9.67969 0.932041C9.3799 0.814405 9.05912 0.755118 8.73567 0.757567C8.08245 0.762512 7.458 1.01862 6.99971 1.46954C6.87526 1.59009 6.71711 1.73805 6.52525 1.91343L5.99182 2.40002L5.45838 1.91343C5.2661 1.73764 5.10773 1.58967 4.98328 1.46954C4.52138 1.02212 3.8949 0.770754 3.24168 0.770754C2.58845 0.770754 1.96197 1.02212 1.50007 1.46954C0.548572 2.39185 0.537553 3.883 1.46507 4.8097L5.99182 9.1946L10.5101 4.81724ZM0.949783 0.937127C1.25073 0.645533 1.60803 0.414224 2.00128 0.25641C2.39453 0.0985965 2.81602 0.0173699 3.24168 0.0173699C3.66734 0.0173699 4.08883 0.0985965 4.48207 0.25641C4.87532 0.414224 5.23262 0.645533 5.53357 0.937127C5.65153 1.05181 5.80428 1.19454 5.99182 1.36532C6.17849 1.19454 6.33124 1.0516 6.45007 0.936499C7.05319 0.343286 7.87488 0.00644987 8.73439 9.16652e-05C9.59389 -0.00626654 10.4208 0.318374 11.0332 0.902595C11.6456 1.48682 11.9933 2.28276 11.9999 3.11534C12.0065 3.94791 11.6713 4.74891 11.0682 5.34212L6.45007 9.81617C6.32852 9.93388 6.16369 10 5.99182 10C5.81995 10 5.65512 9.93388 5.53357 9.81617L0.914134 5.34149C0.321742 4.74968 -0.00657032 3.95591 9.96771e-05 3.13161C0.00676967 2.3073 0.347887 1.51861 0.949783 0.935871V0.937127Z" fill="currentColor"/>
</svg>
